<svg xmlns="http://www.w3.org/2000/svg" width="168.982" height="56.486" viewBox="0 0 168.982 56.486">
  <g id="Download_on_the_App_Store_Badge_US-UK_RGB_blk_092917" transform="translate(0 0)">
    <g id="Group_845" data-name="Group 845" transform="translate(0 0)">
      <g id="Group_843" data-name="Group 843">
        <path id="Path_432" data-name="Path 432" d="M155.525,0H13.464c-.518,0-1.029,0-1.546,0-.432,0-.861.011-1.3.018a18.661,18.661,0,0,0-2.83.25,9.412,9.412,0,0,0-2.684.885A9.091,9.091,0,0,0,2.821,2.82,8.838,8.838,0,0,0,1.157,5.109,9.322,9.322,0,0,0,.274,7.8a18.347,18.347,0,0,0-.253,2.827c-.013.433-.014.867-.021,1.3v32.64c.007.438.008.863.021,1.3a18.347,18.347,0,0,0,.253,2.827,9.3,9.3,0,0,0,.883,2.689,8.766,8.766,0,0,0,1.664,2.28,8.86,8.86,0,0,0,2.286,1.664,9.462,9.462,0,0,0,2.684.891,19,19,0,0,0,2.83.25c.436.01.865.015,1.3.015.516,0,1.028,0,1.546,0H155.525c.508,0,1.023,0,1.531,0,.43,0,.872-.006,1.3-.015a18.751,18.751,0,0,0,2.824-.25,9.608,9.608,0,0,0,2.695-.891,8.865,8.865,0,0,0,2.284-1.664,9.031,9.031,0,0,0,1.669-2.28,9.326,9.326,0,0,0,.874-2.689,19.073,19.073,0,0,0,.262-2.827c.006-.439.006-.863.006-1.3.011-.513.011-1.023.011-1.545V13.466c0-.517,0-1.03-.011-1.542,0-.433,0-.867-.006-1.3A19.073,19.073,0,0,0,168.7,7.8a9.346,9.346,0,0,0-.874-2.688,9.131,9.131,0,0,0-3.952-3.954A9.557,9.557,0,0,0,161.182.27a18.419,18.419,0,0,0-2.824-.25c-.43-.007-.872-.015-1.3-.018-.508,0-1.023,0-1.531,0Z" transform="translate(0 0)" fill="#a6a6a6"/>
        <path id="Path_433" data-name="Path 433" d="M11.565,54.889c-.43,0-.85-.006-1.277-.015a17.916,17.916,0,0,1-2.639-.23,8.309,8.309,0,0,1-2.34-.774,7.634,7.634,0,0,1-1.973-1.436A7.514,7.514,0,0,1,1.9,50.462a8.08,8.08,0,0,1-.767-2.34,17.529,17.529,0,0,1-.235-2.648c-.009-.3-.021-1.289-.021-1.289V11.564s.012-.976.021-1.263a17.468,17.468,0,0,1,.234-2.644A8.128,8.128,0,0,1,1.895,5.31,7.588,7.588,0,0,1,3.328,3.336a7.859,7.859,0,0,1,1.98-1.444,8.223,8.223,0,0,1,2.335-.768A17.773,17.773,0,0,1,10.292.892L11.566.875H156.689l1.289.018a17.489,17.489,0,0,1,2.624.23,8.386,8.386,0,0,1,2.36.774,7.9,7.9,0,0,1,3.41,3.417,8.138,8.138,0,0,1,.756,2.328,18.352,18.352,0,0,1,.245,2.665c0,.4,0,.829,0,1.257.011.53.011,1.034.011,1.542V42.66c0,.513,0,1.014-.011,1.518,0,.459,0,.88-.006,1.313a17.976,17.976,0,0,1-.241,2.617,8.1,8.1,0,0,1-.763,2.358,7.739,7.739,0,0,1-1.434,1.957,7.643,7.643,0,0,1-1.976,1.444,8.278,8.278,0,0,1-2.355.776,17.712,17.712,0,0,1-2.64.23c-.414.01-.847.015-1.267.015l-1.531,0Z" transform="translate(0.36 0.361)"/>
      </g>
      <g id="_Group_" data-name="&lt;Group&gt;" transform="translate(14.081 12.314)">
        <g id="_Group_2" data-name="&lt;Group&gt;">
          <g id="_Group_3" data-name="&lt;Group&gt;">
            <path id="_Path_" data-name="&lt;Path&gt;" d="M30.867,22.909A6.988,6.988,0,0,1,34.2,17.045,7.153,7.153,0,0,0,28.559,14c-2.371-.249-4.67,1.419-5.879,1.419-1.232,0-3.092-1.394-5.1-1.353a7.506,7.506,0,0,0-6.316,3.852c-2.731,4.728-.694,11.678,1.922,15.5,1.309,1.872,2.839,3.962,4.84,3.888,1.959-.081,2.69-1.249,5.055-1.249,2.342,0,3.029,1.249,5.071,1.2,2.1-.034,3.426-1.88,4.689-3.769a15.48,15.48,0,0,0,2.144-4.367A6.753,6.753,0,0,1,30.867,22.909Z" transform="translate(-9.972 -6.555)" fill="#fff"/>
            <path id="_Path_2" data-name="&lt;Path&gt;" d="M23.375,13.649A6.881,6.881,0,0,0,24.949,8.72a7,7,0,0,0-4.53,2.344A6.547,6.547,0,0,0,18.8,15.811,5.788,5.788,0,0,0,23.375,13.649Z" transform="translate(-6.337 -8.72)" fill="#fff"/>
          </g>
        </g>
        <g id="Group_844" data-name="Group 844" transform="translate(34.535 12.922)">
          <path id="Path_434" data-name="Path 434" d="M45.548,30.874H38.864l-1.605,4.74H34.427l6.331-17.536H43.7l6.331,17.536H47.152Zm-5.992-2.187h5.3l-2.612-7.692h-.073Z" transform="translate(-34.427 -17.786)" fill="#fff"/>
          <path id="Path_435" data-name="Path 435" d="M58.674,27.875c0,3.973-2.126,6.526-5.335,6.526a4.334,4.334,0,0,1-4.023-2.237h-.061V38.5H46.631V21.482h2.54v2.126h.048a4.535,4.535,0,0,1,4.071-2.26C56.536,21.348,58.674,23.913,58.674,27.875Zm-2.7,0c0-2.588-1.338-4.29-3.379-4.29-2.005,0-3.354,1.738-3.354,4.29,0,2.576,1.349,4.3,3.354,4.3C54.639,32.177,55.977,30.487,55.977,27.875Z" transform="translate(-29.398 -16.439)" fill="#fff"/>
          <path id="Path_436" data-name="Path 436" d="M68.639,27.875c0,3.973-2.126,6.526-5.335,6.526a4.334,4.334,0,0,1-4.023-2.237H59.22V38.5H56.6V21.482h2.54v2.126h.048a4.535,4.535,0,0,1,4.071-2.26C66.5,21.348,68.639,23.913,68.639,27.875Zm-2.7,0c0-2.588-1.338-4.29-3.379-4.29-2.005,0-3.354,1.738-3.354,4.29,0,2.576,1.349,4.3,3.354,4.3,2.041,0,3.379-1.689,3.379-4.3Z" transform="translate(-25.291 -16.439)" fill="#fff"/>
          <path id="Path_437" data-name="Path 437" d="M72.494,30.813c.194,1.739,1.884,2.881,4.192,2.881,2.212,0,3.8-1.142,3.8-2.71,0-1.361-.96-2.176-3.232-2.735L74.985,27.7c-3.22-.778-4.715-2.284-4.715-4.727,0-3.026,2.637-5.1,6.381-5.1,3.705,0,6.246,2.078,6.331,5.1H80.333c-.159-1.75-1.605-2.806-3.719-2.806s-3.561,1.069-3.561,2.624c0,1.24.924,1.969,3.184,2.528l1.932.474c3.6.851,5.093,2.3,5.093,4.861,0,3.281-2.613,5.335-6.77,5.335-3.889,0-6.515-2.006-6.684-5.178Z" transform="translate(-19.846 -17.871)" fill="#fff"/>
          <path id="Path_438" data-name="Path 438" d="M84.658,19.3v3.026h2.431V24.4H84.658v7.048c0,1.095.487,1.605,1.556,1.605A8.2,8.2,0,0,0,87.077,33v2.066a7.207,7.207,0,0,1-1.458.121c-2.588,0-3.6-.972-3.6-3.452V24.4H80.163V22.325h1.859V19.3Z" transform="translate(-15.578 -17.282)" fill="#fff"/>
          <path id="Path_439" data-name="Path 439" d="M86.065,27.881c0-4.023,2.369-6.55,6.064-6.55s6.065,2.528,6.065,6.55-2.346,6.55-6.065,6.55S86.065,31.915,86.065,27.881Zm9.455,0c0-2.759-1.265-4.388-3.391-4.388s-3.39,1.641-3.39,4.388c0,2.77,1.263,4.387,3.39,4.387s3.391-1.616,3.391-4.387Z" transform="translate(-13.146 -16.445)" fill="#fff"/>
          <path id="Path_440" data-name="Path 440" d="M96.186,21.482h2.5v2.176h.061a3.049,3.049,0,0,1,3.075-2.31,4.047,4.047,0,0,1,.9.1V23.9a3.668,3.668,0,0,0-1.179-.159,2.644,2.644,0,0,0-2.735,2.941v7.583H96.186Z" transform="translate(-8.974 -16.439)" fill="#fff"/>
          <path id="Path_441" data-name="Path 441" d="M112.75,30.518c-.353,2.321-2.613,3.914-5.505,3.914-3.719,0-6.028-2.492-6.028-6.49s2.321-6.611,5.917-6.611c3.537,0,5.762,2.43,5.762,6.306v.9h-9.03V28.7a3.33,3.33,0,0,0,3.439,3.621,2.893,2.893,0,0,0,2.952-1.8ZM103.879,26.7h6.392a3.075,3.075,0,0,0-3.136-3.245,3.237,3.237,0,0,0-3.256,3.245Z" transform="translate(-6.901 -16.445)" fill="#fff"/>
        </g>
      </g>
    </g>
    <g id="_Group_4" data-name="&lt;Group&gt;" transform="translate(50.372 11.914)">
      <g id="Group_846" data-name="Group 846">
        <path id="Path_442" data-name="Path 442" d="M38.714,8.734a3.728,3.728,0,0,1,3.965,4.187c0,2.692-1.455,4.239-3.965,4.239H35.671V8.734ZM36.98,15.968h1.589a2.649,2.649,0,0,0,2.779-3.03,2.656,2.656,0,0,0-2.779-3.013H36.98Z" transform="translate(-35.671 -8.319)" fill="#fff"/>
        <path id="Path_443" data-name="Path 443" d="M41.685,13.407a3.012,3.012,0,1,1,6,0,3.013,3.013,0,1,1-6,0Zm4.707,0c0-1.378-.619-2.184-1.706-2.184s-1.7.806-1.7,2.184.614,2.189,1.7,2.189,1.706-.805,1.706-2.189Z" transform="translate(-33.198 -7.748)" fill="#fff"/>
        <path id="Path_444" data-name="Path 444" d="M53.636,16.554h-1.3L51.02,11.87h-.1l-1.309,4.683H48.322l-1.753-6.359h1.273l1.139,4.852h.094l1.307-4.852h1.2l1.307,4.852h.1l1.134-4.852h1.255Z" transform="translate(-31.179 -7.713)" fill="#fff"/>
        <path id="Path_445" data-name="Path 445" d="M53.854,10.232h1.208v1.01h.094a1.9,1.9,0,0,1,1.9-1.133,2.068,2.068,0,0,1,2.2,2.365v4.116H58v-3.8c0-1.022-.444-1.53-1.372-1.53a1.459,1.459,0,0,0-1.518,1.611v3.72H53.854Z" transform="translate(-28.177 -7.75)" fill="#fff"/>
        <path id="Path_446" data-name="Path 446" d="M59.094,8.437h1.255v8.841H59.094Z" transform="translate(-26.018 -8.437)" fill="#fff"/>
        <path id="Path_447" data-name="Path 447" d="M61.222,13.407a3.013,3.013,0,1,1,6,0,3.013,3.013,0,1,1-6,0Zm4.707,0c0-1.378-.619-2.184-1.706-2.184s-1.7.806-1.7,2.184.614,2.189,1.7,2.189,1.706-.805,1.706-2.189Z" transform="translate(-25.146 -7.748)" fill="#fff"/>
        <path id="Path_448" data-name="Path 448" d="M66.4,14.791c0-1.145.852-1.8,2.365-1.9l1.722-.1v-.549c0-.672-.444-1.051-1.3-1.051-.7,0-1.186.257-1.325.707H66.646c.128-1.092,1.156-1.793,2.6-1.793,1.594,0,2.493.794,2.493,2.137v4.345H70.53V15.7h-.1a2.139,2.139,0,0,1-1.91,1,1.921,1.921,0,0,1-2.12-1.9Zm4.087-.543v-.532l-1.553.1c-.876.059-1.273.356-1.273.917s.5.905,1.179.905a1.5,1.5,0,0,0,1.647-1.39Z" transform="translate(-23.006 -7.748)" fill="#fff"/>
        <path id="Path_449" data-name="Path 449" d="M71.348,14.1c0-2.009,1.033-3.282,2.639-3.282a2.1,2.1,0,0,1,1.95,1.116h.094V8.437h1.255v8.841h-1.2v-1h-.1a2.207,2.207,0,0,1-2,1.109C72.37,17.383,71.348,16.11,71.348,14.1Zm1.3,0c0,1.349.636,2.16,1.7,2.16s1.711-.823,1.711-2.155-.661-2.16-1.711-2.16-1.7.817-1.7,2.155Z" transform="translate(-20.967 -8.437)" fill="#fff"/>
        <path id="Path_450" data-name="Path 450" d="M79.234,13.407a3.012,3.012,0,1,1,6,0,3.013,3.013,0,1,1-6,0Zm4.707,0c0-1.378-.619-2.184-1.706-2.184s-1.7.806-1.7,2.184.614,2.189,1.7,2.189S83.941,14.791,83.941,13.407Z" transform="translate(-17.723 -7.748)" fill="#fff"/>
        <path id="Path_451" data-name="Path 451" d="M84.669,10.232h1.208v1.01h.094a1.9,1.9,0,0,1,1.9-1.133,2.068,2.068,0,0,1,2.2,2.365v4.116H88.815v-3.8c0-1.022-.444-1.53-1.372-1.53a1.459,1.459,0,0,0-1.518,1.611v3.72H84.669Z" transform="translate(-15.477 -7.75)" fill="#fff"/>
        <path id="Path_452" data-name="Path 452" d="M94.176,9.074v1.612h1.378v1.057H94.176v3.27c0,.666.274.958.9.958a4.189,4.189,0,0,0,.479-.029v1.045a4.116,4.116,0,0,1-.683.064c-1.4,0-1.951-.491-1.951-1.717V11.743H91.911V10.686H92.92V9.074Z" transform="translate(-12.493 -8.175)" fill="#fff"/>
        <path id="Path_453" data-name="Path 453" d="M95.7,8.437h1.244v3.5h.1A1.957,1.957,0,0,1,98.987,10.8a2.095,2.095,0,0,1,2.19,2.371v4.105H99.92v-3.8c0-1.016-.473-1.53-1.36-1.53a1.485,1.485,0,0,0-1.6,1.612v3.714H95.7Z" transform="translate(-10.929 -8.437)" fill="#fff"/>
        <path id="Path_454" data-name="Path 454" d="M106.431,14.873a2.581,2.581,0,0,1-2.755,1.84,2.888,2.888,0,0,1-2.937-3.282,2.933,2.933,0,0,1,2.932-3.322c1.769,0,2.837,1.209,2.837,3.206v.438h-4.49v.07a1.681,1.681,0,0,0,1.693,1.822,1.524,1.524,0,0,0,1.513-.771Zm-4.414-2.049h3.212a1.534,1.534,0,0,0-1.565-1.647,1.626,1.626,0,0,0-1.647,1.647Z" transform="translate(-8.866 -7.748)" fill="#fff"/>
      </g>
    </g>
  </g>
</svg>
