<svg xmlns="http://www.w3.org/2000/svg" width="196.65" height="65.734" viewBox="0 0 196.65 65.734">
  <g id="Download_on_the_App_Store_Badge_US-UK_RGB_blk_092917" transform="translate(0)">
    <g id="Group_845" data-name="Group 845" transform="translate(0 0)">
      <g id="Group_843" data-name="Group 843">
        <path id="Path_432" data-name="Path 432" d="M180.99,0H15.669c-.6,0-1.2,0-1.8,0-.5,0-1,.013-1.51.021a21.716,21.716,0,0,0-3.293.29,10.953,10.953,0,0,0-3.124,1.03,10.58,10.58,0,0,0-2.66,1.937A10.285,10.285,0,0,0,1.346,5.946,10.848,10.848,0,0,0,.319,9.074a21.352,21.352,0,0,0-.294,3.29c-.015.5-.017,1.009-.025,1.513V51.862c.008.51.01,1,.025,1.515a21.351,21.351,0,0,0,.294,3.29A10.825,10.825,0,0,0,1.346,59.8a10.2,10.2,0,0,0,1.936,2.653,10.311,10.311,0,0,0,2.66,1.937,11.012,11.012,0,0,0,3.124,1.037,22.112,22.112,0,0,0,3.293.291c.508.011,1.007.018,1.51.018.6,0,1.2,0,1.8,0H180.99c.591,0,1.191,0,1.781,0,.5,0,1.014-.006,1.515-.018a21.821,21.821,0,0,0,3.287-.291,11.182,11.182,0,0,0,3.136-1.037,10.317,10.317,0,0,0,2.658-1.937,10.51,10.51,0,0,0,1.942-2.653,10.853,10.853,0,0,0,1.017-3.129,22.191,22.191,0,0,0,.3-3.29c.006-.51.006-1,.006-1.515.013-.6.013-1.191.013-1.8V15.671c0-.6,0-1.2-.013-1.794,0-.5,0-1.009-.006-1.513a22.2,22.2,0,0,0-.3-3.29,10.876,10.876,0,0,0-1.017-3.128,10.626,10.626,0,0,0-4.6-4.6,11.122,11.122,0,0,0-3.136-1.03,21.435,21.435,0,0,0-3.287-.29c-.5-.008-1.014-.018-1.515-.021-.591,0-1.191,0-1.781,0Z" transform="translate(0 0)" fill="#a6a6a6"/>
        <path id="Path_433" data-name="Path 433" d="M13.316,63.733c-.5,0-.989-.006-1.486-.018a20.848,20.848,0,0,1-3.072-.268,9.669,9.669,0,0,1-2.723-.9,8.883,8.883,0,0,1-2.3-1.671,8.744,8.744,0,0,1-1.677-2.295,9.4,9.4,0,0,1-.892-2.723A20.4,20.4,0,0,1,.9,52.777c-.01-.347-.024-1.5-.024-1.5V13.314s.015-1.136.024-1.47a20.329,20.329,0,0,1,.272-3.076,9.458,9.458,0,0,1,.893-2.731,8.831,8.831,0,0,1,1.668-2.3,9.146,9.146,0,0,1,2.3-1.68,9.569,9.569,0,0,1,2.717-.894A20.683,20.683,0,0,1,11.834.9l1.483-.02H182.2L183.7.9a20.352,20.352,0,0,1,3.054.267,9.759,9.759,0,0,1,2.746.9,9.193,9.193,0,0,1,3.969,3.977,9.469,9.469,0,0,1,.879,2.71,21.351,21.351,0,0,1,.286,3.1c0,.465,0,.965,0,1.463.013.616.013,1.2.013,1.794V49.5c0,.6,0,1.18-.013,1.767,0,.534,0,1.024-.006,1.528a20.919,20.919,0,0,1-.281,3.046,9.43,9.43,0,0,1-.887,2.744,9.006,9.006,0,0,1-1.669,2.277,8.9,8.9,0,0,1-2.3,1.68,9.634,9.634,0,0,1-2.741.9,20.611,20.611,0,0,1-3.072.268c-.481.011-.985.018-1.475.018l-1.781,0Z" transform="translate(0.562 0.563)"/>
      </g>
      <g id="_Group_" data-name="&lt;Group&gt;" transform="translate(16.387 14.331)">
        <g id="_Group_2" data-name="&lt;Group&gt;">
          <g id="_Group_3" data-name="&lt;Group&gt;">
            <path id="_Path_" data-name="&lt;Path&gt;" d="M34.289,24.372a8.133,8.133,0,0,1,3.873-6.823A8.325,8.325,0,0,0,31.6,14c-2.76-.29-5.435,1.651-6.841,1.651-1.433,0-3.6-1.623-5.93-1.575a8.735,8.735,0,0,0-7.351,4.483c-3.178,5.5-.808,13.59,2.237,18.038,1.523,2.178,3.3,4.611,5.633,4.525,2.279-.095,3.131-1.454,5.882-1.454,2.726,0,3.525,1.454,5.9,1.4,2.446-.04,3.987-2.188,5.457-4.386a18.015,18.015,0,0,0,2.5-5.082A7.859,7.859,0,0,1,34.289,24.372Z" transform="translate(-9.972 -5.341)" fill="#fff"/>
            <path id="_Path_2" data-name="&lt;Path&gt;" d="M24.126,14.457A8.007,8.007,0,0,0,25.957,8.72a8.147,8.147,0,0,0-5.271,2.727,7.619,7.619,0,0,0-1.88,5.524A6.736,6.736,0,0,0,24.126,14.457Z" transform="translate(-4.298 -8.72)" fill="#fff"/>
          </g>
        </g>
        <g id="Group_844" data-name="Group 844" transform="translate(40.189 15.038)">
          <path id="Path_434" data-name="Path 434" d="M47.369,32.969H39.59l-1.868,5.516H34.427L41.8,18.078h3.423l7.368,20.407H49.235ZM40.4,30.424h6.166l-3.04-8.952h-.085Z" transform="translate(-34.427 -17.738)" fill="#fff"/>
          <path id="Path_435" data-name="Path 435" d="M60.646,28.944c0,4.624-2.475,7.594-6.209,7.594a5.044,5.044,0,0,1-4.681-2.6h-.071V41.3H46.631V21.5h2.956v2.475h.056a5.278,5.278,0,0,1,4.737-2.63C58.157,21.349,60.646,24.334,60.646,28.944Zm-3.139,0c0-3.012-1.557-4.993-3.932-4.993-2.333,0-3.9,2.022-3.9,4.993,0,3,1.57,5.005,3.9,5.005C55.951,33.95,57.507,31.984,57.507,28.944Z" transform="translate(-26.576 -15.635)" fill="#fff"/>
          <path id="Path_436" data-name="Path 436" d="M70.611,28.944c0,4.624-2.475,7.594-6.209,7.594a5.044,5.044,0,0,1-4.681-2.6H59.65V41.3H56.6V21.5h2.956v2.475h.056a5.278,5.278,0,0,1,4.737-2.63C68.122,21.349,70.611,24.334,70.611,28.944Zm-3.139,0c0-3.012-1.557-4.993-3.932-4.993-2.333,0-3.9,2.022-3.9,4.993,0,3,1.57,5.005,3.9,5.005,2.375,0,3.932-1.966,3.932-5.005Z" transform="translate(-20.165 -15.635)" fill="#fff"/>
          <path id="Path_437" data-name="Path 437" d="M72.934,32.932c.226,2.024,2.192,3.352,4.879,3.352,2.574,0,4.426-1.329,4.426-3.154,0-1.584-1.117-2.532-3.762-3.182l-2.645-.637c-3.747-.905-5.487-2.658-5.487-5.5,0-3.521,3.068-5.939,7.426-5.939,4.312,0,7.268,2.418,7.368,5.939H82.056c-.185-2.037-1.868-3.266-4.328-3.266s-4.144,1.244-4.144,3.054c0,1.443,1.075,2.292,3.706,2.942l2.248.552c4.187.99,5.927,2.672,5.927,5.657,0,3.818-3.041,6.209-7.878,6.209-4.526,0-7.581-2.335-7.779-6.026Z" transform="translate(-11.665 -17.871)" fill="#fff"/>
          <path id="Path_438" data-name="Path 438" d="M85.394,19.3v3.521h2.829v2.418H85.394v8.2c0,1.274.567,1.868,1.81,1.868a9.543,9.543,0,0,0,1-.071v2.4a8.387,8.387,0,0,1-1.7.141c-3.012,0-4.187-1.131-4.187-4.017V25.239H80.163V22.821h2.163V19.3Z" transform="translate(-5.004 -16.952)" fill="#fff"/>
          <path id="Path_439" data-name="Path 439" d="M86.065,28.954c0-4.681,2.757-7.623,7.056-7.623s7.058,2.942,7.058,7.623-2.73,7.623-7.058,7.623S86.065,33.648,86.065,28.954Zm11,0c0-3.211-1.472-5.107-3.946-5.107s-3.945,1.91-3.945,5.107c0,3.224,1.47,5.1,3.945,5.1s3.946-1.881,3.946-5.1Z" transform="translate(-1.206 -15.645)" fill="#fff"/>
          <path id="Path_440" data-name="Path 440" d="M96.186,21.5H99.1v2.532h.071a3.549,3.549,0,0,1,3.579-2.688,4.71,4.71,0,0,1,1.046.114v2.857a4.269,4.269,0,0,0-1.372-.185,3.077,3.077,0,0,0-3.182,3.423v8.825H96.186Z" transform="translate(5.305 -15.635)" fill="#fff"/>
          <path id="Path_441" data-name="Path 441" d="M114.639,32.022c-.411,2.7-3.041,4.555-6.406,4.555-4.328,0-7.015-2.9-7.015-7.552s2.7-7.694,6.886-7.694c4.116,0,6.705,2.828,6.705,7.339v1.046H104.3V29.9a3.875,3.875,0,0,0,4,4.214,3.366,3.366,0,0,0,3.436-2.093Zm-10.324-4.441h7.438a3.578,3.578,0,0,0-3.649-3.776,3.767,3.767,0,0,0-3.789,3.776Z" transform="translate(8.542 -15.645)" fill="#fff"/>
        </g>
      </g>
    </g>
    <g id="_Group_4" data-name="&lt;Group&gt;" transform="translate(58.62 13.865)">
      <g id="Group_846" data-name="Group 846">
        <path id="Path_442" data-name="Path 442" d="M39.213,8.735a4.338,4.338,0,0,1,4.614,4.872c0,3.133-1.693,4.933-4.614,4.933H35.671V8.735Zm-2.019,8.419h1.849a3.083,3.083,0,0,0,3.234-3.527,3.091,3.091,0,0,0-3.234-3.507H37.194Z" transform="translate(-35.671 -8.252)" fill="#fff"/>
        <path id="Path_443" data-name="Path 443" d="M41.687,13.947a3.506,3.506,0,1,1,6.979,0,3.506,3.506,0,1,1-6.979,0Zm5.477,0c0-1.6-.721-2.542-1.985-2.542s-1.984.938-1.984,2.542S43.91,16.5,45.179,16.5s1.985-.937,1.985-2.548Z" transform="translate(-31.811 -7.362)" fill="#fff"/>
        <path id="Path_444" data-name="Path 444" d="M54.793,17.595H53.278l-1.529-5.45h-.116l-1.523,5.45h-1.5l-2.04-7.4h1.481l1.326,5.647h.109l1.521-5.647h1.4l1.521,5.647h.116l1.319-5.647h1.46Z" transform="translate(-28.659 -7.306)" fill="#fff"/>
        <path id="Path_445" data-name="Path 445" d="M53.854,10.254h1.406v1.176h.109a2.215,2.215,0,0,1,2.208-1.318,2.407,2.407,0,0,1,2.561,2.752v4.79h-1.46V13.23c0-1.189-.517-1.781-1.6-1.781a1.7,1.7,0,0,0-1.767,1.875v4.329h-1.46Z" transform="translate(-23.973 -7.365)" fill="#fff"/>
        <path id="Path_446" data-name="Path 446" d="M59.094,8.437h1.46V18.726h-1.46Z" transform="translate(-20.602 -8.437)" fill="#fff"/>
        <path id="Path_447" data-name="Path 447" d="M61.224,13.948a3.506,3.506,0,1,1,6.98,0,3.507,3.507,0,1,1-6.98,0Zm5.477,0c0-1.6-.721-2.542-1.985-2.542s-1.984.938-1.984,2.542.714,2.548,1.984,2.548,1.985-.937,1.985-2.548Z" transform="translate(-19.242 -7.362)" fill="#fff"/>
        <path id="Path_448" data-name="Path 448" d="M66.4,15.558c0-1.332.992-2.1,2.752-2.209l2-.116v-.639c0-.782-.517-1.223-1.515-1.223-.815,0-1.38.3-1.542.822H66.687c.149-1.271,1.345-2.086,3.023-2.086,1.855,0,2.9.924,2.9,2.487v5.056H71.206v-1.04H71.09a2.49,2.49,0,0,1-2.223,1.162A2.235,2.235,0,0,1,66.4,15.558Zm4.757-.632v-.619l-1.807.116c-1.019.068-1.481.415-1.481,1.067s.578,1.054,1.372,1.054a1.744,1.744,0,0,0,1.916-1.618Z" transform="translate(-15.901 -7.362)" fill="#fff"/>
        <path id="Path_449" data-name="Path 449" d="M71.348,15.022c0-2.338,1.2-3.82,3.072-3.82a2.439,2.439,0,0,1,2.269,1.3H76.8V8.437h1.46V18.726h-1.4V17.556h-.116a2.568,2.568,0,0,1-2.324,1.291C72.537,18.848,71.348,17.366,71.348,15.022Zm1.509,0c0,1.57.74,2.514,1.977,2.514s1.992-.958,1.992-2.508-.769-2.514-1.992-2.514-1.977.951-1.977,2.508Z" transform="translate(-12.718 -8.437)" fill="#fff"/>
        <path id="Path_450" data-name="Path 450" d="M79.236,13.947a3.506,3.506,0,1,1,6.979,0,3.506,3.506,0,1,1-6.979,0Zm5.477,0c0-1.6-.721-2.542-1.985-2.542s-1.984.938-1.984,2.542.714,2.548,1.984,2.548S84.714,15.558,84.714,13.947Z" transform="translate(-7.654 -7.362)" fill="#fff"/>
        <path id="Path_451" data-name="Path 451" d="M84.669,10.254h1.406v1.176h.109a2.215,2.215,0,0,1,2.208-1.318,2.407,2.407,0,0,1,2.561,2.752v4.79h-1.46V13.23c0-1.189-.517-1.781-1.6-1.781a1.7,1.7,0,0,0-1.767,1.875v4.329h-1.46Z" transform="translate(-4.148 -7.365)" fill="#fff"/>
        <path id="Path_452" data-name="Path 452" d="M94.547,9.074V10.95h1.6v1.23h-1.6v3.805c0,.775.319,1.115,1.046,1.115a4.875,4.875,0,0,0,.557-.034v1.216a4.791,4.791,0,0,1-.794.075c-1.624,0-2.271-.571-2.271-2V12.18H91.911V10.95h1.175V9.074Z" transform="translate(0.511 -8.027)" fill="#fff"/>
        <path id="Path_453" data-name="Path 453" d="M95.7,8.437h1.448v4.078h.116a2.277,2.277,0,0,1,2.256-1.326,2.438,2.438,0,0,1,2.548,2.759v4.778h-1.462V14.308c0-1.182-.551-1.781-1.582-1.781A1.729,1.729,0,0,0,97.165,14.4v4.322H95.7Z" transform="translate(2.952 -8.437)" fill="#fff"/>
        <path id="Path_454" data-name="Path 454" d="M107.367,15.653a3,3,0,0,1-3.206,2.141,3.361,3.361,0,0,1-3.418-3.819,3.413,3.413,0,0,1,3.412-3.866c2.059,0,3.3,1.407,3.3,3.73v.51H102.23v.082a1.956,1.956,0,0,0,1.971,2.12,1.774,1.774,0,0,0,1.761-.9Zm-5.137-2.385h3.738a1.785,1.785,0,0,0-1.821-1.917,1.892,1.892,0,0,0-1.916,1.917Z" transform="translate(6.172 -7.362)" fill="#fff"/>
      </g>
    </g>
  </g>
</svg>
