<svg id="Component_6_2" data-name="Component 6 – 2" xmlns="http://www.w3.org/2000/svg" width="169.003" height="52.676" viewBox="0 0 169.003 52.676">
  <rect id="Rectangle_1274" data-name="Rectangle 1274" width="169.003" height="52.676" rx="4"/>
  <g id="Afterpay_Logo_Mint" transform="translate(21.843 14.541)">
    <g id="Group_828" data-name="Group 828" transform="translate(102.499 0)">
      <path id="Path_412" data-name="Path 412" d="M1286.975,314.008l-3.94-2.255-4-2.289a3.969,3.969,0,0,0-5.945,3.439v.513a.771.771,0,0,0,.4.683l1.856,1.059a.769.769,0,0,0,1.15-.672v-1.219a.785.785,0,0,1,1.173-.683l3.644,2.1,3.633,2.084a.781.781,0,0,1,0,1.355l-3.633,2.084-3.644,2.1a.785.785,0,0,1-1.173-.683v-.6a3.965,3.965,0,0,0-5.945-3.439l-4,2.289-3.94,2.255a3.977,3.977,0,0,0,0,6.89l3.94,2.255,4,2.289a3.969,3.969,0,0,0,5.945-3.439V329.6a.771.771,0,0,0-.4-.683l-1.856-1.059a.769.769,0,0,0-1.15.672v1.219a.785.785,0,0,1-1.173.683l-3.644-2.1-3.633-2.084a.781.781,0,0,1,0-1.355l3.633-2.084,3.644-2.1a.785.785,0,0,1,1.173.683v.6a3.966,3.966,0,0,0,5.945,3.439l4-2.289,3.94-2.255A3.977,3.977,0,0,0,1286.975,314.008Z" transform="translate(-1260.625 -308.933)" fill="#b2fce4"/>
    </g>
    <g id="Group_830" data-name="Group 830" transform="translate(87.964 5.827)">
      <g id="Group_829" data-name="Group 829" transform="translate(0 0)">
        <path id="Path_413" data-name="Path 413" d="M1148.033,360.1l-9.225,19.053h-3.827l3.451-7.118L1133,360.1h3.929l3.485,7.995,3.8-7.995Z" transform="translate(-1133 -360.1)" fill="#b2fce4"/>
      </g>
    </g>
    <g id="Group_838" data-name="Group 838" transform="translate(0 0.292)">
      <g id="Group_837" data-name="Group 837" transform="translate(0)">
        <g id="Group_831" data-name="Group 831" transform="translate(0 5.296)">
          <path id="Path_414" data-name="Path 414" d="M371.362,365a3.683,3.683,0,1,0-3.678,3.872A3.7,3.7,0,0,0,371.362,365m.034,6.765v-1.754a5.417,5.417,0,0,1-4.271,1.97c-3.713,0-6.526-2.972-6.526-6.981a6.728,6.728,0,0,1,6.605-7,5.41,5.41,0,0,1,4.191,1.947v-1.708h3.325v13.529Z" transform="translate(-360.6 -358)" fill="#b2fce4"/>
        </g>
        <g id="Group_832" data-name="Group 832" transform="translate(15.705)">
          <path id="Path_415" data-name="Path 415" d="M513.089,327.558c-1.162,0-1.492-.433-1.492-1.572v-6h2.141v-2.95H511.6v-3.3h-3.405v3.3h-4.4v-1.344c0-1.139.433-1.572,1.629-1.572h.752V311.5h-1.64c-2.813,0-4.145.922-4.145,3.735v1.811H498.5v2.938h1.89v10.58H503.8v-10.58h4.4v6.628c0,2.756,1.059,3.952,3.815,3.952h1.754v-3.007Z" transform="translate(-498.5 -311.5)" fill="#b2fce4"/>
        </g>
        <g id="Group_833" data-name="Group 833" transform="translate(32.184 5.284)">
          <path id="Path_416" data-name="Path 416" d="M653.541,363.7a3.242,3.242,0,0,0-3.36-2.813,3.337,3.337,0,0,0-3.405,2.813Zm-6.8,2.107a3.367,3.367,0,0,0,3.5,3.143,3.573,3.573,0,0,0,3.189-1.754h3.5c-.809,2.87-3.382,4.7-6.765,4.7a6.667,6.667,0,0,1-6.958-6.958,7,7,0,1,1,14,0,4.293,4.293,0,0,1-.08.866Z" transform="translate(-643.2 -357.9)" fill="#b2fce4"/>
        </g>
        <g id="Group_834" data-name="Group 834" transform="translate(57.147 5.284)">
          <path id="Path_417" data-name="Path 417" d="M873.117,364.915a3.683,3.683,0,1,0-3.679,3.872,3.752,3.752,0,0,0,3.679-3.872M862.4,377.2V358.151h3.325V359.9a5.376,5.376,0,0,1,4.271-2,6.659,6.659,0,0,1,6.526,6.981,6.728,6.728,0,0,1-6.605,7,5.232,5.232,0,0,1-4.088-1.811v7.118H862.4Z" transform="translate(-862.4 -357.9)" fill="#b2fce4"/>
        </g>
        <g id="Group_835" data-name="Group 835" transform="translate(72.499 5.296)">
          <path id="Path_418" data-name="Path 418" d="M1007.962,365a3.683,3.683,0,1,0-3.678,3.872,3.7,3.7,0,0,0,3.678-3.872m.034,6.765v-1.754a5.417,5.417,0,0,1-4.271,1.97c-3.713,0-6.526-2.972-6.526-6.981a6.728,6.728,0,0,1,6.605-7,5.41,5.41,0,0,1,4.191,1.947v-1.708h3.325v13.529Z" transform="translate(-997.2 -358)" fill="#b2fce4"/>
        </g>
        <g id="Group_836" data-name="Group 836" transform="translate(47.809 5.284)">
          <path id="Path_419" data-name="Path 419" d="M783.737,359.472a3.346,3.346,0,0,1,2.927-1.572,3.313,3.313,0,0,1,1.458.307v3.451a4.274,4.274,0,0,0-2.4-.615,2.383,2.383,0,0,0-1.879,2.619v8.006H780.4V358.151h3.325v1.321Z" transform="translate(-780.4 -357.9)" fill="#b2fce4"/>
        </g>
      </g>
    </g>
  </g>
</svg>
