<svg xmlns="http://www.w3.org/2000/svg" width="344.806" height="80.446" viewBox="0 0 344.806 80.446">
  <g id="Group_983" data-name="Group 983" transform="translate(-145.229 -2103.201)">
    <path id="Path_506" data-name="Path 506" d="M43.237,31.881a22.42,22.42,0,0,1-5.59,5.769,13.12,13.12,0,0,1-7.421,2.29c-5.036,0-8.7-1.655-10.991-4.762-2.381-3.114-3.479-7.691-3.479-13.646V17.773A27.9,27.9,0,0,1,17.04,8.981,13.558,13.558,0,0,1,25.376.645V0H24a25.79,25.79,0,0,0-10.17,1.925A21.233,21.233,0,0,0,6.323,6.961,22.973,22.973,0,0,0,1.56,14.294,22.6,22.6,0,0,0,0,22.812a27.213,27.213,0,0,0,1.466,9.251,19.567,19.567,0,0,0,4.58,7.33,21.87,21.87,0,0,0,7.782,4.945A30.257,30.257,0,0,0,25.1,46.264a26.11,26.11,0,0,0,6.87-.915,25.67,25.67,0,0,0,5.965-2.476,26.373,26.373,0,0,0,8.7-8.518ZM27.831,7.413a20.951,20.951,0,0,1,1.045,4.58,51.709,51.709,0,0,1,.309,5.513l-10.03.189v3.84H46.909V18.541a19.355,19.355,0,0,0-1.357-7.291,15.03,15.03,0,0,0-4.061-5.983,21.4,21.4,0,0,0-7.5-4.208C33.358.869,32.734.683,32,.5a18.569,18.569,0,0,0-6.358,3.328v.743a6,6,0,0,1,2.185,2.841" transform="translate(145.229 2103.201)"/>
    <path id="Path_507" data-name="Path 507" d="M38.038,40.625a3.439,3.439,0,0,1-1.375-1.648,6.226,6.226,0,0,1-.456-2.472V1.511L35.566.873,14.678,1.967V5.18a22.512,22.512,0,0,1,2.651.456,7.621,7.621,0,0,1,1.922.915A5.2,5.2,0,0,1,21.1,8.659a5.593,5.593,0,0,1,.726,2.749V36.96a5.084,5.084,0,0,1-.547,2.567,2.855,2.855,0,0,1-1.925,1.557,7.488,7.488,0,0,1-1.831.456c-.733.091-1.466.091-2.29.186v3.205H41.517V41.722a6.05,6.05,0,0,1-1.834-.459,15.821,15.821,0,0,1-1.655-.642m32.8.642c-.642-.182-1.284-.365-1.739-.551a3.647,3.647,0,0,1-1.743-1.554,6.981,6.981,0,0,1-.456-2.651V15.16A15.979,15.979,0,0,0,63.313,4.078,13.439,13.439,0,0,0,53.062.147a18.767,18.767,0,0,0-5.678.828,16.234,16.234,0,0,0-4.4,1.82,23.091,23.091,0,0,0-3.3,2.567L39.6,9.023l.642.277a21.765,21.765,0,0,1,2.557-1.284,8.029,8.029,0,0,1,3.388-.642,5.311,5.311,0,0,1,4.584,2.29,11.448,11.448,0,0,1,1.557,6.779V36.96a11.2,11.2,0,0,1-.186,2.651,2.271,2.271,0,0,1-1.28,1.466,6.794,6.794,0,0,1-1.743.456,14.92,14.92,0,0,0-2.013.189v3.205H73.209V41.722a9.354,9.354,0,0,1-2.381-.459" transform="translate(182.026 2103.52)"/>
    <path id="Path_508" data-name="Path 508" d="M58.267,17.854c-1.831-4.121-3.205-7.326-4.212-9.616-.091-.459-.274-.459-.368-.831a1.683,1.683,0,0,1-.182-.828c0-.642.642-1.1,2.013-1.557A13.505,13.505,0,0,1,59,4.38V1.186H32.256V4.391A9.49,9.49,0,0,1,36.1,5.857,5.54,5.54,0,0,1,38.94,8.785c2.651,5.864,5.134,11.454,7.512,16.581S51.674,37,54.971,44.788h9.251L67.7,38.647l-5.134-11.17c-1.466-3.3-2.932-6.505-4.307-9.62M81.894,2.287A7.4,7.4,0,0,0,71.422,2.5l-.06.06a7.521,7.521,0,0,0,.27,10.626c5.04,4.121-3.475,20.246-3.475,20.246l.828,1.655.733.091L83.093,11.626A7.4,7.4,0,0,0,81.9,2.283" transform="translate(226.093 2103.758)"/>
    <path id="Path_509" data-name="Path 509" d="M73.993,18.338c-1.831-4.121-3.205-7.326-4.215-9.62-.088-.365-.274-.828-.365-1.1a1.618,1.618,0,0,1-.182-.828c0-.642.638-1.192,2.013-1.557A13.885,13.885,0,0,1,74.722,4.5V1.3H47.978V4.506a11,11,0,0,1,3.847,1.466,7.088,7.088,0,0,1,2.841,3.3c2.648,5.864,5.134,11.45,7.508,16.581,2.294,4.945,8.617,19.509,12.092,27.572l1.01.091,4.671-8.241,3.479-6.137L78.292,27.957c-1.466-3.3-2.932-6.505-4.307-9.62M71.334,54.884c-1.375,1.834-4.854,6.323-4.762,1.834A6.921,6.921,0,1,0,55.581,62.3a11.237,11.237,0,0,0,9.251,2.017c1.739-.551,4.945-2.017,8.241-7.235l-.915-2.108ZM97.626,2.307a7.409,7.409,0,0,0-10.475.305l-.06.063a7.412,7.412,0,0,0,.214,10.479l.06.053c5.04,4.215-3.479,20.705-3.479,20.705l.828,1.659.736.091L98.822,11.752A7.51,7.51,0,0,0,97.63,2.311" transform="translate(265.508 2103.92)"/>
    <path id="Path_510" data-name="Path 510" d="M83.421.487A17.132,17.132,0,0,1,91.091,2.1a12.315,12.315,0,0,1,5.1,4.577,13.077,13.077,0,0,1,1.845,7.042,13.077,13.077,0,0,1-1.845,7.042,12.283,12.283,0,0,1-5.1,4.573,17.038,17.038,0,0,1-7.67,1.613H73.352V43.928H68.085V.487ZM82.632,22.01a10.966,10.966,0,0,0,7.5-2.139A7.858,7.858,0,0,0,92.5,13.719a7.851,7.851,0,0,0-2.367-6.19,11.112,11.112,0,0,0-7.5-2.1H73.356V22.01Z" transform="translate(315.916 2104.41)"/>
    <path id="Path_511" data-name="Path 511" d="M77.1,43.921,94.006.484h6.253L117.11,43.921h-5.594L99.143,11.538,97.1,5.485h-.13l-1.911,5.857L82.622,43.921Zm8.29-16.981h23.23v4.938H85.385Z" transform="translate(338.504 2104.414)"/>
    <path id="Path_512" data-name="Path 512" d="M124.292.484,108.76,26.941V43.925h-5.267V26.941L87.96.484h6.253l8.424,14.873,3.479,6.19,3.489-6.19L118.029.484Z" transform="translate(365.742 2104.414)"/>
    <path id="Path_513" data-name="Path 513" d="M60.581,17.842h1.262V27.967H60.581Zm.631,5.387h2.655a2.351,2.351,0,0,0,1.68-.565,2.032,2.032,0,0,0,.6-1.561v-.014a2.038,2.038,0,0,0-.6-1.568,2.364,2.364,0,0,0-1.68-.558H61.212V17.842H64.19a3.379,3.379,0,0,1,1.683.407,2.966,2.966,0,0,1,1.147,1.133,3.379,3.379,0,0,1,.417,1.694v.014a3.4,3.4,0,0,1-.417,1.7,2.964,2.964,0,0,1-1.147,1.15,3.346,3.346,0,0,1-1.683.414H61.212Z" transform="translate(297.103 2147.93)"/>
    <path id="Path_514" data-name="Path 514" d="M64.3,25.726a3.132,3.132,0,0,1-1.185-1.315,4.469,4.469,0,0,1-.424-2.013v-.014a4.412,4.412,0,0,1,.424-2.01,3.1,3.1,0,0,1,1.185-1.3,3.613,3.613,0,0,1,3.539,0,3.149,3.149,0,0,1,1.185,1.3,4.412,4.412,0,0,1,.424,2.01V22.4a4.453,4.453,0,0,1-.424,2.017,3.207,3.207,0,0,1-1.182,1.312,3.643,3.643,0,0,1-3.542,0m2.9-.94a2.076,2.076,0,0,0,.74-.926A3.672,3.672,0,0,0,68.2,22.4v-.014a3.642,3.642,0,0,0-.26-1.459,2.045,2.045,0,0,0-.747-.919,1.994,1.994,0,0,0-1.122-.316,1.962,1.962,0,0,0-1.115.319,2.064,2.064,0,0,0-.747.919,3.608,3.608,0,0,0-.267,1.455V22.4a3.667,3.667,0,0,0,.267,1.462,2.065,2.065,0,0,0,.747.926,1.96,1.96,0,0,0,1.129.323,1.915,1.915,0,0,0,1.115-.323" transform="translate(302.396 2149.848)"/>
    <path id="Path_515" data-name="Path 515" d="M64.8,18.647h1.217l1.459,5.937H67.5l1.648-5.937h1.178l1.655,5.937h.032l1.459-5.937h1.2l-2.034,7.3H71.4L69.754,20.3h-.028l-1.641,5.646H66.843Z" transform="translate(307.677 2149.948)"/>
    <path id="Path_516" data-name="Path 516" d="M69.359,25.724A2.985,2.985,0,0,1,68.2,24.416a4.564,4.564,0,0,1-.4-1.988V22.42a4.624,4.624,0,0,1,.407-1.992,3.151,3.151,0,0,1,1.143-1.34,3.386,3.386,0,0,1,3.447-.018A2.956,2.956,0,0,1,73.9,20.358a4.519,4.519,0,0,1,.382,1.922v.449H68.408v-.957h5.274l-.614.887v-.473a3.311,3.311,0,0,0-.26-1.4,1.8,1.8,0,0,0-.7-.828,1.966,1.966,0,0,0-1.031-.27,1.987,1.987,0,0,0-1.045.284,1.937,1.937,0,0,0-.733.845,3.235,3.235,0,0,0-.263,1.368v.473a3.092,3.092,0,0,0,.26,1.319,1.964,1.964,0,0,0,.75.838,2.19,2.19,0,0,0,1.143.291,2.276,2.276,0,0,0,.828-.14,1.762,1.762,0,0,0,.614-.386,1.409,1.409,0,0,0,.347-.561L73,23.956h1.2l-.014.07a2.4,2.4,0,0,1-.351.842,2.7,2.7,0,0,1-.652.691,3.039,3.039,0,0,1-.915.463,3.633,3.633,0,0,1-1.108.165,3.375,3.375,0,0,1-1.8-.463" transform="translate(315.196 2149.85)"/>
    <path id="Path_517" data-name="Path 517" d="M70,18.747h1.22v1.238h.025a2,2,0,0,1,.635-1.007,1.631,1.631,0,0,1,1.066-.372,1.859,1.859,0,0,1,.291.021,1.927,1.927,0,0,1,.2.032v1.182a1.4,1.4,0,0,0-.245-.046,3.464,3.464,0,0,0-.4-.021,1.542,1.542,0,0,0-.824.21,1.394,1.394,0,0,0-.551.6,2.2,2.2,0,0,0-.189.954v4.5H70Z" transform="translate(320.714 2149.848)"/>
    <path id="Path_518" data-name="Path 518" d="M72.621,25.724a2.984,2.984,0,0,1-1.157-1.308,4.564,4.564,0,0,1-.4-1.988V22.42a4.623,4.623,0,0,1,.407-1.992,3.151,3.151,0,0,1,1.143-1.34,3.386,3.386,0,0,1,3.447-.018,2.956,2.956,0,0,1,1.108,1.287,4.519,4.519,0,0,1,.382,1.922v.449H71.67v-.957h5.274l-.614.887v-.473a3.312,3.312,0,0,0-.26-1.4,1.8,1.8,0,0,0-.7-.828,1.966,1.966,0,0,0-1.031-.27,1.987,1.987,0,0,0-1.045.284,1.937,1.937,0,0,0-.733.845,3.235,3.235,0,0,0-.263,1.368v.473a3.091,3.091,0,0,0,.26,1.319,1.963,1.963,0,0,0,.75.838,2.19,2.19,0,0,0,1.143.291,2.276,2.276,0,0,0,.828-.14,1.761,1.761,0,0,0,.614-.386,1.408,1.408,0,0,0,.347-.561l.021-.063h1.2l-.014.07a2.4,2.4,0,0,1-.351.842,2.7,2.7,0,0,1-.652.691,3.039,3.039,0,0,1-.915.463,3.633,3.633,0,0,1-1.108.165,3.374,3.374,0,0,1-1.8-.463" transform="translate(323.374 2149.85)"/>
    <path id="Path_519" data-name="Path 519" d="M74.627,27.637a3.009,3.009,0,0,1-1.08-1.315,4.806,4.806,0,0,1-.389-2.006v-.007a4.706,4.706,0,0,1,.393-2,3.1,3.1,0,0,1,1.08-1.315,2.938,2.938,0,0,1,2.574-.3,2.532,2.532,0,0,1,1.371,1.2H78.6V17.842h1.22V27.963H78.6V26.732h-.028a2.6,2.6,0,0,1-.568.733,2.555,2.555,0,0,1-.782.47,2.592,2.592,0,0,1-.964.168,2.865,2.865,0,0,1-1.634-.466m2.967-.95a2.171,2.171,0,0,0,.747-.947,3.45,3.45,0,0,0,.27-1.424v-.007a3.421,3.421,0,0,0-.274-1.42,2.311,2.311,0,0,0-.747-.947,1.858,1.858,0,0,0-1.091-.333,1.879,1.879,0,0,0-1.115.33,2.086,2.086,0,0,0-.726.933,3.7,3.7,0,0,0-.249,1.438v.007a3.777,3.777,0,0,0,.249,1.445,2.059,2.059,0,0,0,.726.936,1.9,1.9,0,0,0,1.115.33,1.858,1.858,0,0,0,1.094-.34" transform="translate(328.634 2147.93)"/>
    <path id="Path_520" data-name="Path 520" d="M78.993,27.939a2.592,2.592,0,0,1-.782-.473,2.749,2.749,0,0,1-.572-.733h-.032v1.231h-1.22V17.842h1.22v4.047h.032a2.556,2.556,0,0,1,.579-.726,2.376,2.376,0,0,1,.793-.47,2.938,2.938,0,0,1,2.574.3,3.1,3.1,0,0,1,1.08,1.315,4.761,4.761,0,0,1,.389,2v.007a4.806,4.806,0,0,1-.386,2.006,3.045,3.045,0,0,1-1.084,1.319,2.887,2.887,0,0,1-1.631.463,2.672,2.672,0,0,1-.961-.165M80.83,26.7a2.053,2.053,0,0,0,.722-.936,3.775,3.775,0,0,0,.252-1.445v-.007a3.7,3.7,0,0,0-.252-1.438,2.08,2.08,0,0,0-.722-.933,1.887,1.887,0,0,0-1.115-.33,1.829,1.829,0,0,0-1.091.337,2.284,2.284,0,0,0-.751.943,3.422,3.422,0,0,0-.273,1.42v.007a3.537,3.537,0,0,0,.27,1.427,2.213,2.213,0,0,0,.751.943,1.819,1.819,0,0,0,1.094.34,1.911,1.911,0,0,0,1.115-.33" transform="translate(336.729 2147.93)"/>
    <path id="Path_521" data-name="Path 521" d="M79.351,28.383c-.119-.011-.217-.025-.3-.039v-1c.053.011.109.018.179.028a1.4,1.4,0,0,0,.214.014,1.817,1.817,0,0,0,.929-.2,1.474,1.474,0,0,0,.565-.821l.147-.414L78.38,18.648h1.3l2.1,6.358-.259-.281H81.9l-.263.281,2.115-6.358h1.284L82.185,26.4a5.023,5.023,0,0,1-.582,1.136,2.011,2.011,0,0,1-.782.652,2.648,2.648,0,0,1-1.115.21,3,3,0,0,1-.354-.018" transform="translate(341.725 2149.95)"/>
    <path id="Path_522" data-name="Path 522" d="M106.463,24.792c0-3.924-1.9-7.021-5.534-7.021s-5.857,3.1-5.857,6.993c0,4.612,2.606,6.944,6.348,6.944a8.529,8.529,0,0,0,4.247-1V27.647a8.13,8.13,0,0,1-3.752.842c-1.487,0-2.806-.519-2.974-2.329h7.494c0-.2.028-1,.028-1.368m-7.572-1.455c0-1.732,1.059-2.451,2.024-2.451.936,0,1.932.719,1.932,2.451Z" transform="translate(383.572 2147.752)" fill="#635bff" fill-rule="evenodd"/>
    <path id="Path_523" data-name="Path 523" d="M98.086,17.771a4.326,4.326,0,0,0-3,1.2l-.2-.95H91.51V35.9l3.833-.814.014-4.338a4.325,4.325,0,0,0,2.714.968c2.746,0,5.243-2.209,5.243-7.067-.018-4.45-2.543-6.874-5.229-6.874m-.919,10.563a2.285,2.285,0,0,1-1.81-.719l-.014-5.692a2.287,2.287,0,0,1,1.824-.75c1.4,0,2.36,1.564,2.36,3.57,0,2.059-.95,3.591-2.36,3.591" transform="translate(374.642 2147.752)" fill="#635bff" fill-rule="evenodd"/>
    <path id="Path_524" data-name="Path 524" d="M90.006,20.329l3.847-.828V16.391l-3.847.81Z" transform="translate(370.871 2144.291)" fill="#635bff" fill-rule="evenodd"/>
    <rect id="Rectangle_1394" data-name="Rectangle 1394" width="3.847" height="13.414" transform="translate(460.877 2165.785)" fill="#635bff"/>
    <path id="Path_525" data-name="Path 525" d="M91.372,19.1l-.245-1.133H87.816V31.381h3.833V22.29a2.7,2.7,0,0,1,2.911-.8V17.97A2.6,2.6,0,0,0,91.372,19.1" transform="translate(365.381 2147.816)" fill="#635bff" fill-rule="evenodd"/>
    <path id="Path_526" data-name="Path 526" d="M89.33,16.9l-3.742.8-.014,12.278a3.854,3.854,0,0,0,3.763,3.942c.07,0,.137,0,.207,0a5.878,5.878,0,0,0,2.683-.505V30.294c-.491.2-2.911.9-2.911-1.364V23.49h2.911V20.222H89.316Z" transform="translate(359.757 2145.561)" fill="#635bff" fill-rule="evenodd"/>
    <path id="Path_527" data-name="Path 527" d="M86.463,21.923c0-.6.491-.828,1.3-.828a8.525,8.525,0,0,1,3.8.989V18.476a10.154,10.154,0,0,0-3.8-.7c-3.114,0-5.183,1.624-5.183,4.338,0,4.233,5.829,3.556,5.829,5.383,0,.7-.614.933-1.473.933A9.545,9.545,0,0,1,82.756,27.2v3.647a10.611,10.611,0,0,0,4.184.873c3.191,0,5.383-1.578,5.383-4.324-.021-4.566-5.86-3.756-5.86-5.474" transform="translate(352.264 2147.751)" fill="#635bff" fill-rule="evenodd"/>
  </g>
</svg>
