<svg id="Layer_1" data-name="Layer 1" xmlns="http://www.w3.org/2000/svg" width="127.301" height="52.676" viewBox="0 0 127.301 52.676">
  <rect id="Rectangle_1271" data-name="Rectangle 1271" width="127.301" height="52.676" rx="4" fill="#ffb3c7"/>
  <path id="Path_364" data-name="Path 364" d="M82.72,18.017a7.885,7.885,0,1,0,0,13.032V32h4.474V17.061H82.72ZM78.651,28.378a3.85,3.85,0,1,1,4.054-3.844,3.954,3.954,0,0,1-4.054,3.844Z" transform="translate(19.219 5.247)"/>
  <rect id="Rectangle_1272" data-name="Rectangle 1272" width="4.682" height="21.602" transform="translate(35.902 15.539)"/>
  <path id="Path_365" data-name="Path 365" d="M66.1,16.659a5.435,5.435,0,0,0-4.608,2.086V17.062H57.034V32h4.509V24.151A3.151,3.151,0,0,1,64.9,20.766c1.966,0,3.1,1.175,3.1,3.354V32h4.469V22.5C72.467,19.024,69.7,16.659,66.1,16.659Z" transform="translate(15.57 5.24)"/>
  <path id="Path_366" data-name="Path 366" d="M45.643,18.017a7.885,7.885,0,1,0,0,13.032V32h4.474V17.061H45.643ZM41.574,28.378a3.85,3.85,0,1,1,4.054-3.844,3.954,3.954,0,0,1-4.054,3.844Z" transform="translate(9.096 5.247)"/>
  <path id="Path_367" data-name="Path 367" d="M52.934,18.919V16.973H48.353V31.916h4.59V24.94c0-2.354,2.551-3.619,4.322-3.619l.053,0V16.974a5.578,5.578,0,0,0-4.385,1.945Z" transform="translate(13.201 5.333)"/>
  <path id="Path_368" data-name="Path 368" d="M87.925,24.548a2.808,2.808,0,1,0,2.808,2.808,2.808,2.808,0,0,0-2.808-2.808Z" transform="translate(23.237 7.508)"/>
  <path id="Path_369" data-name="Path 369" d="M28.2,11.738H23.344a12.41,12.41,0,0,1-5.017,10.016L16.4,23.194l7.449,10.158h6.124l-6.853-9.346A17.192,17.192,0,0,0,28.2,11.738Z" transform="translate(4.479 3.797)"/>
  <rect id="Rectangle_1273" data-name="Rectangle 1273" width="4.861" height="21.612" transform="translate(15.43 15.535)"/>
</svg>
