<svg id="money-transfer" xmlns="http://www.w3.org/2000/svg" width="123.057" height="101.372" viewBox="0 0 123.057 101.372">
  <path id="Path_426" data-name="Path 426" d="M230.9,232.107c-3.2-.107-5.82-1.762-5.82-3.471,0-.908.8-2.243,1.815-2.243,1.121,0,2.029,1.575,4,1.922V223.99c-2.456-.935-5.34-2.082-5.34-5.5,0-3.391,2.51-5.02,5.34-5.42v-.748c0-.374.427-.721,1.015-.721.507,0,1.014.347,1.014.721v.668c1.655.053,4.779.481,4.779,2.323,0,.721-.48,2.189-1.655,2.189-.881,0-1.388-.854-3.124-.988v3.9c2.43.908,5.26,2.163,5.26,5.767,0,3.311-2.136,5.313-5.26,5.82v.774c0,.374-.507.721-1.014.721-.587,0-1.015-.347-1.015-.721v-.668Zm.267-12.335v-3.177c-1.2.24-1.709.854-1.709,1.5C229.455,218.864,230.15,219.345,231.164,219.772Zm1.5,4.939v3.578c.908-.214,1.629-.721,1.629-1.682,0-.881-.668-1.442-1.629-1.9Z" transform="translate(-170.935 -171.544)" fill="#fff"/>
  <path id="Path_427" data-name="Path 427" d="M347.608,232.107c-3.2-.107-5.82-1.762-5.82-3.471,0-.908.8-2.243,1.815-2.243,1.121,0,2.029,1.575,4,1.922V223.99c-2.457-.935-5.34-2.082-5.34-5.5,0-3.391,2.51-5.02,5.34-5.42v-.748c0-.374.427-.721,1.015-.721.507,0,1.014.347,1.014.721v.668c1.655.053,4.779.481,4.779,2.323,0,.721-.481,2.189-1.655,2.189-.881,0-1.388-.854-3.124-.988v3.9c2.43.908,5.26,2.163,5.26,5.767,0,3.311-2.136,5.313-5.26,5.82v.774c0,.374-.507.721-1.014.721-.587,0-1.015-.347-1.015-.721Zm.267-12.335v-3.177c-1.2.24-1.709.854-1.709,1.5C346.166,218.864,346.86,219.345,347.875,219.772Zm1.5,4.939v3.578c.908-.214,1.628-.721,1.628-1.682,0-.881-.667-1.442-1.628-1.9Z" transform="translate(-259.571 -171.544)" fill="#fff"/>
  <path id="Path_428" data-name="Path 428" d="M121.253,99.949a1.8,1.8,0,0,0,1.8-1.8V52.9a7.838,7.838,0,0,0-7.829-7.829h-40.1A7.838,7.838,0,0,0,67.3,52.9V78.4a18.455,18.455,0,0,0-11.548-.375V52.9a7.838,7.838,0,0,0-7.829-7.829H7.829A7.838,7.838,0,0,0,0,52.9v48.862a1.8,1.8,0,0,0,3.608,0V63.888H52.146V79.517a18.474,18.474,0,0,0,0,32.486v15.629H3.608V108.981a1.8,1.8,0,1,0-3.608,0v29.636a7.838,7.838,0,0,0,7.829,7.829h40.1a7.838,7.838,0,0,0,7.829-7.829V113.49a18.455,18.455,0,0,0,11.548-.375v25.5a7.838,7.838,0,0,0,7.829,7.829h40.1a7.838,7.838,0,0,0,7.829-7.829V105.361a1.8,1.8,0,0,0-3.608,0v22.271H70.911V111.314a18.619,18.619,0,0,0,4.072-3.547,18.478,18.478,0,1,0,0-24.015,18.615,18.615,0,0,0-4.071-3.546V63.888h48.538V98.145A1.8,1.8,0,0,0,121.253,99.949ZM3.608,60.28V52.9a4.225,4.225,0,0,1,4.221-4.221h40.1A4.225,4.225,0,0,1,52.146,52.9V60.28Zm44.317,82.558H7.829a4.225,4.225,0,0,1-4.221-4.221V131.24H52.146v7.377A4.225,4.225,0,0,1,47.925,142.837Zm71.523-11.6v7.377a4.225,4.225,0,0,1-4.221,4.221h-40.1a4.225,4.225,0,0,1-4.22-4.221V131.24ZM89.027,80.889a14.871,14.871,0,1,1-11.9,23.79,18.433,18.433,0,0,0,0-17.835A14.912,14.912,0,0,1,89.027,80.889ZM75.824,95.76A14.871,14.871,0,1,1,60.952,80.889,14.888,14.888,0,0,1,75.824,95.76ZM70.911,60.28V52.9a4.225,4.225,0,0,1,4.22-4.221h40.1a4.225,4.225,0,0,1,4.221,4.221V60.28Z" transform="translate(0 -45.074)" fill="#fff"/>
  <path id="Path_429" data-name="Path 429" d="M110.275,213.155H99.314a1.8,1.8,0,0,0,0,3.608h10.961a1.8,1.8,0,1,0,0-3.608Z" transform="translate(-74.054 -172.723)" fill="#fff"/>
  <path id="Path_430" data-name="Path 430" d="M110.275,283.413H99.314a1.8,1.8,0,0,0,0,3.608h10.961a1.8,1.8,0,1,0,0-3.608Z" transform="translate(-74.054 -226.081)" fill="#fff"/>
  <path id="Path_431" data-name="Path 431" d="M46.317,250.012a1.8,1.8,0,0,0,1.8,1.8H69.01a1.8,1.8,0,1,0,0-3.608H48.121A1.8,1.8,0,0,0,46.317,250.012Z" transform="translate(-35.176 -199.344)" fill="#fff"/>
</svg>
